<svg width="12" height="12" viewBox="0 0 12 12" fill="none" xmlns="http://www.w3.org/2000/svg">
<path d="M6.64059 0.420889L7.9353 3.18586C8.03264 3.3941 8.22065 3.53812 8.43865 3.5713L11.4273 4.02868C11.9753 4.11268 12.1941 4.82423 11.7974 5.23224L9.63668 7.45228C9.47868 7.61464 9.40663 7.84828 9.44397 8.0777L9.93796 11.1159C10.038 11.7321 9.42663 12.2022 8.90261 11.9121L6.31059 10.4756C6.11592 10.3676 5.88389 10.3676 5.68989 10.4756L3.09982 11.9107C2.57514 12.2015 1.96177 11.7307 2.06244 11.113L2.55651 8.0777C2.59385 7.84828 2.5218 7.61464 2.3638 7.45228L0.203102 5.23224C-0.194241 4.82423 0.0243855 4.11268 0.573065 4.02868L3.56183 3.5713C3.77916 3.53812 3.96717 3.3941 4.06517 3.18586L5.35988 0.420889C5.62056 -0.140296 6.37792 -0.140296 6.64059 0.420889Z" fill="#F0914D"/>
</svg>
