<svg width="12" height="12" viewBox="0 0 12 12" fill="none" xmlns="http://www.w3.org/2000/svg">
<path d="M6 0C2.688 0 0 2.688 0 6C0 9.312 2.688 12 6 12C9.312 12 12 9.312 12 6C12 2.688 9.312 0 6 0ZM8.418 4.92001L5.61599 7.71599C5.53199 7.80599 5.41799 7.84801 5.29799 7.84801C5.18399 7.84801 5.06999 7.80599 4.97999 7.71599L3.582 6.31802C3.408 6.14402 3.408 5.85598 3.582 5.68198C3.756 5.50798 4.044 5.50798 4.218 5.68198L5.29799 6.76201L7.782 4.28401C7.956 4.10401 8.244 4.10401 8.418 4.28401C8.592 4.45801 8.592 4.74001 8.418 4.92001Z" fill="#2D85E9"/>
</svg>
