<svg width="24" height="24" viewBox="0 0 24 24" fill="none" xmlns="http://www.w3.org/2000/svg">
<path fill-rule="evenodd" clip-rule="evenodd" d="M2 12C2 6.47727 6.47727 2 12 2C17.5227 2 22 6.47727 22 12C22 17.5227 17.5227 22 12 22C6.47727 22 2 17.5227 2 12ZM10.1818 9.09091C10.1803 8.96189 10.2128 8.83475 10.276 8.72225C10.3392 8.60975 10.4309 8.51586 10.5418 8.45C10.6496 8.38799 10.773 8.35843 10.8972 8.36488C11.0214 8.37133 11.141 8.41352 11.2418 8.48636L15.3327 11.3955C15.4277 11.4649 15.5048 11.5559 15.5576 11.661C15.6104 11.7662 15.6374 11.8824 15.6364 12C15.6375 12.1178 15.6106 12.2342 15.5578 12.3395C15.505 12.4448 15.4278 12.5359 15.3327 12.6055L11.2418 15.5145C11.141 15.5874 11.0214 15.6296 10.8972 15.636C10.773 15.6425 10.6496 15.6129 10.5418 15.5509C10.4307 15.485 10.339 15.3909 10.2758 15.2783C10.2126 15.1656 10.1802 15.0383 10.1818 14.9091L10.1818 9.09091Z" fill="#D83A56"/>
</svg>
