<?xml version="1.0" encoding="UTF-8"?>
<!DOCTYPE svg PUBLIC "-//W3C//DTD SVG 1.1//EN" "http://www.w3.org/Graphics/SVG/1.1/DTD/svg11.dtd">
<!-- Creator: CorelDRAW -->
<svg xmlns="http://www.w3.org/2000/svg" xml:space="preserve" width="80.2727mm" height="7.9431mm" version="1.1" style="shape-rendering:geometricPrecision; text-rendering:geometricPrecision; image-rendering:optimizeQuality; fill-rule:evenodd; clip-rule:evenodd"
viewBox="0 0 570845.71 56486.01"
 xmlns:xlink="http://www.w3.org/1999/xlink"
 xmlns:xodm="http://www.corel.com/coreldraw/odm/2003">
 <defs>
  <style type="text/css">
   <![CDATA[
    .fil0 {fill:black;fill-rule:nonzero}
    .fil1 {fill:#BA1818;fill-rule:nonzero}
   ]]>
  </style>
 </defs>
 <g id="Слой_x0020_1">
  <metadata id="CorelCorpID_0Corel-Layer"/>
  <g id="_1687090764928">
   <g>
    <path class="fil0" d="M89920.64 30622.81l0 -6520.38c0,-827.05 250.32,-1490.53 759.49,-1990.46 500.64,-500.64 1163.41,-759.49 1991.17,-759.49 7347.43,0 14695.56,-0.71 22041.57,-0.71 827.05,0 1490.53,250.32 1990.46,759.49 500.64,500.64 759.49,1163.41 759.49,1991.17 0,8193.68 -2.13,16388.06 -2.13,24581.03 0,827.05 -250.32,1490.53 -759.49,1990.46 -500.64,500.64 -1163.41,759.49 -1991.17,759.49 -7849.49,0 -15698.97,0 -23548.46,0 -6001.25,-48.36 -11117.14,-2173.93 -15349.1,-6385.97 -4231.24,-4212.04 -6376.02,-9317.98 -6423.66,-15309.98l0 -4596.76c47.65,-6000.54 2183.18,-11117.14 6423.66,-15348.38 4231.95,-4231.24 9347.84,-6376.02 15349.1,-6423.66l23551.3 0c826.34,0 1490.53,250.32 1990.46,750.25 499.93,499.93 759.49,1163.41 759.49,1991.17l0 6519.67c0,827.05 -249.61,1490.53 -759.49,1991.17 -499.93,499.93 -1163.41,750.25 -1990.46,750.25l-23551.3 -0.71c-2703.02,0 -5000.69,952.21 -6905.1,2846.67 -1904.41,1904.41 -2846.67,4202.8 -2846.67,6905.1l0 4596.76c47.65,2653.95 1019.76,4933.13 2914.22,6837.54 1903.7,1904.41 4173.64,2846.67 6827.59,2846.67l14280.97 -0.71 0 -6038.94 -12771.24 0c-827.05,0 -1490.53,-250.32 -1990.46,-760.2 -499.93,-489.97 -750.25,-1153.46 -750.25,-1980.51z"/>
    <path class="fil0" d="M120203.53 31305.5l0 -7828.15c462.24,-5673.42 2760.62,-10433.74 6905.1,-14280.97 4145.19,-3846.52 9078.32,-5789.33 14800.1,-5837.69l4596.76 0c5673.42,48.36 10588.06,1991.17 14732.54,5837.69 4145.19,3846.52 6443.58,8606.84 6905.1,14280.97l0 7828.15c-461.53,5673.42 -2759.91,10443.7 -6905.1,14280.97 -4144.48,3846.52 -9049.17,5789.33 -14732.54,5836.98l-4596.76 0c-5721.78,-47.65 -10655.62,-1990.46 -14800.1,-5836.98 -4145.19,-3837.27 -6442.87,-8597.6 -6905.1,-14280.97zm21705.2 8106.92l4596.76 0c2654.66,0 4933.13,-952.21 6827.59,-2846.67 1894.46,-1904.41 2846.67,-4173.64 2846.67,-6837.54l0 -4596.76c0,-2654.66 -942.25,-4933.84 -2817.51,-6837.54 -1875.26,-1894.46 -4163.68,-2875.82 -6865.99,-2914.22l-4596.76 0c-2654.66,48.36 -4933.84,1009.81 -6828.3,2885.78 -1903.7,1874.55 -2875.11,4163.68 -2913.51,6865.99l0 4596.76c47.65,2654.66 1019.76,4933.13 2913.51,6837.54 1904.41,1894.46 4173.64,2846.67 6837.54,2846.67z"/>
    <path class="fil0" d="M180154.89 51433.41l-6520.38 0c-827.05,0 -1490.53,-250.32 -1991.17,-760.2 -499.93,-499.93 -759.49,-1163.41 -759.49,-1990.46l0 -23618.86c48.36,-5952.89 2183.18,-11040.34 6424.38,-15280.83 4231.24,-4231.95 9327.93,-6376.02 15280.83,-6424.38l23618.86 0c827.05,0 1490.53,250.32 1990.46,750.25 499.93,500.64 759.49,1163.41 759.49,1991.17l0 6520.38c0,826.34 -249.61,1490.53 -759.49,1990.46 -499.93,499.93 -1163.41,750.25 -1990.46,750.25l-23618.86 -0.71c-2653.95,0 -4933.13,952.21 -6827.59,2846.67 -1904.41,1904.41 -2846.67,4183.6 -2846.67,6837.54l0 23618.86c0,827.05 -250.32,1491.25 -759.49,1991.17 -509.88,528.37 -1173.37,778.69 -2000.42,778.69z"/>
    <path class="fil0" d="M249309.03 18399.86l0 -12290.51c0,-827.05 249.61,-1490.53 759.49,-1990.46 499.93,-500.64 1163.41,-750.25 1990.46,-750.25l6520.38 0c827.05,0 1490.53,250.32 1990.46,750.25 500.64,499.93 760.2,1163.41 760.2,1991.17l0 12289.8c0,1606.45 -278.76,3202.94 -827.05,4808.68 2423.54,1278.62 4346.45,3116.19 5770.13,5491.37 1422.98,2385.14 2124.87,4943.09 2124.87,7693.04l0 12290.51c0,827.05 -249.61,1490.53 -759.49,1990.46 -499.93,500.64 -1163.41,760.2 -1990.46,760.2l-6520.38 -0.71c-827.05,0 -1490.53,-250.32 -1991.17,-760.2 -499.93,-499.93 -759.49,-1163.41 -759.49,-1990.46l0 -12290.51c0,-826.34 -297.96,-1518.98 -894.61,-2096.42 -595.93,-576.73 -1307.77,-855.49 -2124.87,-855.49l-21012.56 0 0 15242.43c0,827.05 -250.32,1490.53 -759.49,1990.46 -499.93,500.64 -1163.41,760.2 -1990.46,760.2l-6520.38 0c-827.05,0 -1490.53,-250.32 -1991.17,-760.2 -499.93,-499.93 -759.49,-1163.41 -759.49,-1990.46l0 -42573.4c0,-827.05 250.32,-1490.53 759.49,-1990.46 500.64,-500.64 1163.41,-750.25 1991.17,-750.25l6519.67 0c827.05,0 1490.53,250.32 1990.46,750.25 500.64,499.93 760.2,1163.41 760.2,1991.17l0 15309.98 13943.9 -0.71c827.05,-47.65 1519.69,-355.57 2096.42,-923.05 567.48,-577.44 875.4,-1269.37 923.76,-2096.42z"/>
    <path class="fil0" d="M300123.75 51433.41l-26503.93 0c-826.34,0 -1490.53,-250.32 -1990.46,-760.2 -499.93,-499.93 -759.49,-1163.41 -759.49,-1990.46l0 -6520.38c0,-827.05 249.61,-1490.53 759.49,-1990.46 499.93,-499.93 1163.41,-759.49 1990.46,-759.49l26503.93 0c827.05,0 1519.69,-297.96 2096.42,-894.61 567.48,-595.93 856.2,-1307.77 856.2,-2125.58l0 -2951.91 -21013.27 0c-4115.33,-86.76 -7625.48,-1586.54 -10510.55,-4500.76 -2885.78,-2904.27 -4327.96,-6423.66 -4327.96,-10539.7l0 -12290.51c0,-827.05 250.32,-1490.53 760.2,-1990.46 499.93,-500.64 1163.41,-750.25 1990.46,-750.25l6318.42 0c826.34,0 1490.53,250.32 1990.46,750.25 499.93,499.93 759.49,1163.41 759.49,1991.17l0 12289.8c0,827.05 297.96,1538.89 894.61,2125.58 595.93,595.93 1307.77,894.61 2124.87,894.61l21013.27 -0.71 0 -15309.98c0,-827.05 249.61,-1490.53 759.49,-1990.46 499.93,-500.64 1163.41,-750.25 1990.46,-750.25l6597.18 0c827.05,0 1490.53,250.32 1990.46,750.25 500.64,499.93 760.2,1163.41 760.2,1991.17l-67.56 30282.89c0,4163.68 -1462.09,7712.95 -4394.8,10645.66 -2942.67,2923.47 -6472.02,4394.8 -10588.06,4394.8z"/>
    <path class="fil1" d="M337821.63 3358.68l6519.67 0c827.05,0 1490.53,250.32 1991.17,750.25 499.93,500.64 759.49,1163.41 759.49,1991.17l0 23618.86c0,2653.95 951.5,4933.13 2846.67,6837.54 1904.41,1904.41 4173.64,2846.67 6837.54,2846.67l23618.86 -0.71c827.05,0 1490.53,250.32 1990.46,760.2 500.64,499.93 750.25,1163.41 750.25,1990.46l0 6520.38c0,827.05 -249.61,1490.53 -750.25,1990.46 -499.93,499.93 -1163.41,759.49 -1990.46,759.49l-23618.86 0c-5952.89,-47.65 -11049.59,-2182.47 -15280.83,-6423.66 -4231.95,-4231.24 -6376.02,-9328.64 -6424.38,-15280.83l0 -23618.86c0,-827.05 250.32,-1490.53 760.2,-1991.17 499.93,-499.93 1163.41,-750.25 1990.46,-750.25z"/>
    <path class="fil1" d="M385895.64 48682.75l0 -42573.4c0,-827.05 250.32,-1490.53 759.49,-1990.46 500.64,-500.64 1163.41,-750.25 1991.17,-750.25l6520.38 0c826.34,0 1490.53,250.32 1990.46,750.25 499.93,499.93 759.49,1163.41 759.49,1991.17l0 42573.4c0,826.34 -250.32,1490.53 -759.49,1990.46 -499.93,499.93 -1163.41,759.49 -1990.46,759.49l-6520.38 0c-827.05,0 -1490.53,-250.32 -1991.17,-760.2 -509.17,-499.93 -759.49,-1163.41 -759.49,-1990.46z"/>
    <path class="fil1" d="M451472.07 29728.21l0 -23618.86c0,-827.05 250.32,-1490.53 760.2,-1990.46 499.93,-500.64 1163.41,-750.25 1990.46,-750.25l6520.38 0c826.34,0 1490.53,250.32 1990.46,750.25 499.93,499.93 759.49,1163.41 759.49,1991.17l0 23618.86c0,2653.95 952.21,4933.13 2846.67,6837.54 1904.41,1903.7 4173.64,2846.67 6837.54,2846.67l4596.76 -0.71c2654.66,0 4933.84,-952.21 6837.54,-2846.67 1894.46,-1904.41 2875.82,-4173.64 2914.22,-6837.54l0 -23618.86c0,-827.05 250.32,-1491.25 759.49,-1991.17 499.93,-499.93 1163.41,-750.25 1991.17,-750.25l6519.67 0.71c827.05,0 1490.53,250.32 1990.46,750.25 499.93,499.93 750.25,1163.41 750.25,1991.17l0 23618.86c-47.65,6000.54 -2183.18,11097.23 -6423.66,15309.98 -4231.95,4212.04 -9328.64,6336.91 -15280.83,6385.26l-4597.48 -0.71c-6000.54,0 -11117.14,-2115.62 -15348.38,-6356.82 -4231.24,-4221.29 -6366.06,-9337.18 -6414.42,-15338.43z"/>
    <path class="fil1" d="M505153.37 48682.75l0 -42573.4c0,-827.05 249.61,-1490.53 759.49,-1990.46 499.93,-500.64 1163.41,-750.25 1990.46,-750.25l6520.38 0c826.34,0 1490.53,250.32 1990.46,750.25 499.93,499.93 759.49,1163.41 759.49,1991.17l0 42573.4c0,826.34 -249.61,1490.53 -759.49,1990.46 -499.93,499.93 -1163.41,759.49 -1990.46,759.49l-6520.38 0c-826.34,0 -1490.53,-250.32 -1990.46,-760.2 -509.88,-499.93 -759.49,-1163.41 -759.49,-1990.46z"/>
    <path class="fil1" d="M522780.94 51433.41l0 -30562.37c0,-5260.96 1605.74,-9501.45 4807.97,-12703.68 3202.94,-3202.23 7433.47,-4808.68 12703.68,-4808.68l8857.16 0c6000.54,48.36 11117.14,2183.18 15348.38,6424.38 4231.24,4231.24 6347.57,9347.84 6347.57,15348.38l0 4596.76c-48.36,6001.25 -2183.18,11097.94 -6424.38,15309.98 -4231.24,4212.04 -9328.64,6337.62 -15280.83,6385.26l-26359.57 0 0 9.96zm26368.81 -36053.74l-8510.84 0c-1740.85,0 -3144.63,539.04 -4221.29,1615.69 -1077.37,1077.37 -1615.69,2481.14 -1615.69,4222l0 18195.05 14347.82 0c2653.95,-48.36 4933.13,-1019.76 6837.54,-2914.22 1894.46,-1894.46 2846.67,-4173.64 2846.67,-6827.59l0 -4596.76c0,-2654.66 -952.21,-4933.84 -2846.67,-6837.54 -1903.7,-1904.41 -4183.6,-2856.62 -6837.54,-2856.62z"/>
    <path class="fil1" d="M400724.9 31305.5l0 -7828.15c461.53,-5673.42 2759.91,-10433.74 6905.1,-14280.97 4144.48,-3846.52 9078.32,-5789.33 14799.39,-5837.69l4596.76 0c5674.13,48.36 10588.77,1991.17 14733.25,5837.69 4145.19,3846.52 6442.87,8606.84 6904.39,14280.97l0 7828.15c-461.53,5673.42 -2759.91,10443.7 -6904.39,14280.97 -4145.19,3846.52 -9049.17,5789.33 -14733.25,5836.98l-4596.76 0c-5721.78,-47.65 -10654.91,-1990.46 -14799.39,-5836.98 -4145.19,-3837.27 -6443.58,-8597.6 -6905.1,-14280.97zm21704.49 8106.92l4596.76 0c2654.66,0 4933.84,-952.21 6828.3,-2846.67 1894.46,-1904.41 2846.67,-4173.64 2846.67,-6837.54l0 -4596.76c0,-2654.66 -942.96,-4933.84 -2817.51,-6837.54 -1875.26,-1894.46 -4164.4,-2875.82 -6866.7,-2914.22l-4596.76 0c-2653.95,48.36 -4933.13,1009.81 -6827.59,2885.78 -1904.41,1874.55 -2875.11,4163.68 -2914.22,6865.99l0 4596.76c48.36,2654.66 1019.76,4933.13 2914.22,6837.54 1903.7,1894.46 4182.88,2846.67 6836.83,2846.67z"/>
    <path class="fil1" d="M438134.06 56097.73l-12550.08 -17195.2c-240.36,-336.37 -231.12,-750.25 19.2,-1250.17 259.56,-499.93 721.09,-990.61 1384.58,-1481.29l5270.21 -3846.52c663.49,-480.73 1279.33,-778.69 1826.9,-865.45 558.24,-96 952.21,28.45 1202.53,355.57l12549.37 17195.2c240.36,336.37 231.12,750.25 -19.2,1250.17 -259.56,500.64 -721.09,990.61 -1384.58,1481.29l-5270.21 3846.52c-663.49,490.68 -1278.62,778.69 -1826.9,865.45 -557.53,96 -961.45,-19.2 -1201.81,-355.57z"/>
   </g>
   <g>
    <g>
     <path class="fil1" d="M21998.9 33816.51c-1585.83,0 -2884.36,-1299.24 -2884.36,-2885.07l0 -15258.07c0,-1585.83 -1299.24,-2884.36 -2885.07,-2884.36l-724.64 0c-1585.83,0 -2885.07,1298.53 -2885.07,2884.36l0 15258.07c0,1585.83 0,3192.28 0,3562.07 0,369.08 0,1845.39 0,3266.95 0,1422.27 1299.24,2584.26 2885.07,2584.26l18265.45 0c1585.83,0 2885.07,-1298.53 2885.07,-2884.36l0 -765.89c0,-1585.83 -1299.24,-2884.36 -2885.07,-2884.36l-11771.39 -0.71 0 7.11z"/>
    </g>
    <path class="fil0" d="M34.85 26590.69c0,-7574.28 -6.4,-15141.45 13.51,-22716.43 0,-608.02 54.76,-1243.77 246.76,-1818.37 437.35,-1298.53 1558.09,-2050.91 2897.87,-2050.91 14123.1,-6.4 28246.92,-6.4 42370.02,0 2344.61,0 3691.49,1388.13 3697.89,3753.36 0,1859.61 7.11,3712.11 0,5571.73 -6.4,1571.6 -834.16,2816.09 -2187.45,3321.7 -1442.18,540.46 -3274.77,143.65 -4238.35,-922.34 -478.59,-526.24 -711.13,-1162.7 -785.8,-1873.12 -157.87,-1518.27 -977.81,-2365.94 -2474.74,-2584.26 -321.43,-47.65 -649.98,-61.16 -977.81,-61.16 -9317.98,0 -18635.24,0 -27952.51,-7.11 -936.56,0 -1790.63,150.76 -2501.77,861.18 -546.86,547.57 -834.16,1182.61 -896.03,1927.88 -19.91,253.16 -6.4,512.73 -6.4,765.89 0,10520.5 0,21041.01 0,31561.51 0,253.16 -13.51,512.73 6.4,765.89 109.51,1339.77 1011.94,2385.85 2331.09,2672.44 383.3,82.49 792.91,116.63 1189.73,116.63 9242.6,6.4 18491.59,6.4 27733.48,0 327.83,0 656.38,0 977.81,-54.76 1523.96,-259.56 2549.41,-1381.02 2556.52,-2932.71 27.02,-3855.76 34.13,-7717.93 0,-11580.09 -13.51,-1647.7 -923.05,-2639.01 -2543.01,-2905.69 -465.08,-75.38 -936.56,-123.03 -1408.04,-123.03 -3458.95,-6.4 -6918.61,-68.27 -10370.45,20.62 -2023.17,54.76 -3677.98,-1613.56 -3657.36,-3629.62 20.62,-2030.28 1524.67,-3589.09 3596.2,-3596.2 6042.5,-19.91 12085.71,-19.91 18128.92,0 2050.91,7.11 3472.46,1477.02 3472.46,3541.44 7.11,8298.92 -34.13,16604.25 34.13,24903.17 14.22,2044.51 -1866.01,3609.71 -3561.35,3603.31 -14013.59,-48.36 -28027.89,-48.36 -42041.48,0 -2057.31,6.4 -3712.11,-1763.61 -3684.38,-3705 88.89,-7602.01 34.13,-15217.54 34.13,-22825.95z"/>
   </g>
  </g>
 </g>
</svg>
