<svg width="14" height="14" viewBox="0 0 14 14" fill="none" xmlns="http://www.w3.org/2000/svg">
<path d="M13.6301 5.67854C12.6875 4.11796 10.5717 1.5 7 1.5C3.42834 1.5 1.31254 4.11796 0.369909 5.67854C-0.123303 6.49325 -0.123303 7.50604 0.369909 8.32146C1.31254 9.88204 3.42834 12.5 7 12.5C10.5717 12.5 12.6875 9.88204 13.6301 8.32146C14.1233 7.50604 14.1233 6.49396 13.6301 5.67854ZM12.706 7.775C11.8804 9.14184 10.0404 11.4355 7 11.4355C3.9596 11.4355 2.11956 9.14255 1.29395 7.775C1.00535 7.29667 1.00535 6.70263 1.29395 6.22431C2.11956 4.85747 3.9596 2.56382 7 2.56382C10.0404 2.56382 11.8804 4.85676 12.706 6.22431C12.9954 6.70334 12.9954 7.29667 12.706 7.775ZM7 3.98387C5.31719 3.98387 3.94883 5.33723 3.94883 7C3.94883 8.66277 5.31719 10.0161 7 10.0161C8.68281 10.0161 10.0512 8.66277 10.0512 7C10.0512 5.33723 8.68281 3.98387 7 3.98387ZM7 8.95161C5.91091 8.95161 5.02571 8.07658 5.02571 7C5.02571 5.92342 5.91091 5.04839 7 5.04839C8.08909 5.04839 8.97429 5.92342 8.97429 7C8.97429 8.07658 8.08909 8.95161 7 8.95161Z" fill="#22252D" fill-opacity="0.9"/>
</svg>
