<svg width="18" height="18" viewBox="0 0 18 18" fill="none" xmlns="http://www.w3.org/2000/svg">
<g opacity="0.24">
<mask id="path-1-inside-1_1357_758" fill="white">
<path d="M7.46859 15.75H14.625C14.9234 15.75 15.2095 15.6315 15.4205 15.4205C15.6315 15.2095 15.75 14.9234 15.75 14.625V11.9777C15.7495 11.8855 15.7264 11.7948 15.6826 11.7136C15.6388 11.6324 15.5757 11.5632 15.4988 11.5122C15.422 11.4611 15.3338 11.4297 15.242 11.4208C15.1502 11.4119 15.0576 11.4257 14.9723 11.4609C14.773 11.5433 14.5594 11.5856 14.3437 11.5854C13.4135 11.5854 12.6562 10.8049 12.6562 9.84656C12.6562 8.8882 13.4135 8.10773 14.3437 8.10773C14.5594 8.10757 14.773 8.14985 14.9723 8.23219C15.058 8.26765 15.1511 8.28139 15.2434 8.27218C15.3357 8.26297 15.4242 8.23109 15.5012 8.17939C15.5781 8.12768 15.6411 8.05775 15.6845 7.97582C15.728 7.89388 15.7504 7.80249 15.75 7.70977V5.0625C15.75 4.76413 15.6315 4.47798 15.4205 4.267C15.2095 4.05603 14.9234 3.9375 14.625 3.9375H12.0783C12.0887 3.84412 12.0939 3.75022 12.0937 3.65625C12.0937 2.98492 11.8271 2.34109 11.3524 1.86639C10.8777 1.39168 10.2338 1.125 9.5625 1.125C8.89117 1.125 8.24734 1.39168 7.77264 1.86639C7.29793 2.34109 7.03125 2.98492 7.03125 3.65625C7.03109 3.75022 7.03625 3.84412 7.04672 3.9375H4.5C4.20163 3.9375 3.91548 4.05603 3.7045 4.267C3.49353 4.47798 3.375 4.76413 3.375 5.0625V7.32797C3.28162 7.3175 3.18772 7.31234 3.09375 7.3125C2.42242 7.3125 1.77859 7.57918 1.30389 8.05389C0.829184 8.52859 0.5625 9.17242 0.5625 9.84375C0.5625 10.5151 0.829184 11.1589 1.30389 11.6336C1.77859 12.1083 2.42242 12.375 3.09375 12.375C3.18772 12.3752 3.28162 12.37 3.375 12.3595V14.625C3.375 14.9234 3.49353 15.2095 3.7045 15.4205C3.91548 15.6315 4.20163 15.75 4.5 15.75H7.46859Z"/>
</mask>
<path d="M15.75 11.9777H17.75L17.75 11.9673L15.75 11.9777ZM14.9723 11.4609L15.7359 13.3095L15.7374 13.3088L14.9723 11.4609ZM14.3437 11.5854L14.3453 9.58539H14.3437V11.5854ZM14.3437 8.10773L14.3437 10.1077L14.3453 10.1077L14.3437 8.10773ZM14.9723 8.23219L15.7374 6.38429L15.7359 6.38366L14.9723 8.23219ZM15.75 7.70977H13.75L13.75 7.71936L15.75 7.70977ZM14.625 3.9375V1.9375V3.9375ZM12.0783 3.9375L10.0907 3.71472L9.84158 5.9375H12.0783V3.9375ZM12.0937 3.65625H10.0937L10.0938 3.65971L12.0937 3.65625ZM9.5625 1.125V-0.875V1.125ZM7.03125 3.65625L9.03125 3.65971V3.65625H7.03125ZM7.04672 3.9375V5.9375H9.28342L9.03427 3.71472L7.04672 3.9375ZM4.5 3.9375V1.9375V3.9375ZM3.375 5.0625H1.375H3.375ZM3.375 7.32797L3.15222 9.31552L5.375 9.56467V7.32797H3.375ZM3.09375 7.3125V9.3125L3.09721 9.3125L3.09375 7.3125ZM0.5625 9.84375H-1.4375H0.5625ZM3.09375 12.375L3.09721 10.375H3.09375V12.375ZM3.375 12.3595H5.375V10.1228L3.15222 10.372L3.375 12.3595ZM3.375 14.625H1.375H3.375ZM7.46859 17.75H14.625V13.75H7.46859V17.75ZM14.625 17.75C15.4538 17.75 16.2487 17.4208 16.8347 16.8347L14.0063 14.0063C14.1704 13.8422 14.3929 13.75 14.625 13.75V17.75ZM16.8347 16.8347C17.4208 16.2487 17.75 15.4538 17.75 14.625H13.75C13.75 14.3929 13.8422 14.1704 14.0063 14.0063L16.8347 16.8347ZM17.75 14.625V11.9777H13.75V14.625H17.75ZM17.75 11.9673C17.7478 11.5471 17.6423 11.1339 17.4428 10.764L13.9224 12.6632C13.8104 12.4557 13.7513 12.2239 13.75 11.9881L17.75 11.9673ZM17.4428 10.764C17.2432 10.3942 16.9558 10.0791 16.6058 9.84645L14.3919 13.1779C14.1955 13.0474 14.0343 12.8707 13.9224 12.6632L17.4428 10.764ZM16.6058 9.84645C16.2558 9.61386 15.854 9.47091 15.4357 9.43021L15.0483 13.4114C14.8136 13.3886 14.5882 13.3084 14.3919 13.1779L16.6058 9.84645ZM15.4357 9.43021C15.0175 9.3895 14.5956 9.45229 14.2073 9.61304L15.7374 13.3088C15.5195 13.399 15.2829 13.4342 15.0483 13.4114L15.4357 9.43021ZM14.2088 9.61241C14.2521 9.59454 14.2985 9.58535 14.3453 9.58539L14.3422 13.5854C14.8203 13.5858 15.2939 13.492 15.7359 13.3095L14.2088 9.61241ZM14.3437 9.58539C14.4526 9.58539 14.5391 9.63373 14.5864 9.68254C14.6329 9.73037 14.6562 9.79132 14.6562 9.84656H10.6562C10.6562 11.8525 12.2528 13.5854 14.3437 13.5854V9.58539ZM14.6562 9.84656C14.6562 9.90181 14.6329 9.96275 14.5864 10.0106C14.5391 10.0594 14.4526 10.1077 14.3437 10.1077V6.10773C12.2528 6.10773 10.6562 7.84067 10.6562 9.84656H14.6562ZM14.3453 10.1077C14.2985 10.1078 14.2521 10.0986 14.2088 10.0807L15.7359 6.38366C15.2939 6.20112 14.8203 6.10736 14.3422 6.10773L14.3453 10.1077ZM14.2073 10.0801C14.5976 10.2417 15.0218 10.3043 15.4421 10.2623L15.0447 6.28208C15.2805 6.25853 15.5184 6.29365 15.7374 6.38429L14.2073 10.0801ZM15.4421 10.2623C15.8624 10.2203 16.2658 10.0751 16.6165 9.83955L14.3859 6.51922C14.5826 6.38709 14.8089 6.30562 15.0447 6.28208L15.4421 10.2623ZM16.6165 9.83955C16.9671 9.604 17.2541 9.28543 17.4518 8.91217L13.9173 7.03946C14.0282 6.83007 14.1892 6.65136 14.3859 6.51922L16.6165 9.83955ZM17.4518 8.91217C17.6496 8.53891 17.752 8.12256 17.75 7.70017L13.75 7.71936C13.7489 7.48241 13.8063 7.24885 13.9173 7.03946L17.4518 8.91217ZM17.75 7.70977V5.0625H13.75V7.70977H17.75ZM17.75 5.0625C17.75 4.2337 17.4208 3.43884 16.8347 2.85279L14.0063 5.68122C13.8422 5.51713 13.75 5.29457 13.75 5.0625H17.75ZM16.8347 2.85279C16.2487 2.26674 15.4538 1.9375 14.625 1.9375L14.625 5.9375C14.3929 5.9375 14.1704 5.84531 14.0063 5.68122L16.8347 2.85279ZM14.625 1.9375H12.0783V5.9375H14.625V1.9375ZM14.0658 4.16028C14.0847 3.99178 14.094 3.82234 14.0937 3.65279L10.0938 3.65971C10.0938 3.67809 10.0928 3.69646 10.0907 3.71472L14.0658 4.16028ZM14.0937 3.65625C14.0937 2.45449 13.6164 1.30195 12.7666 0.452172L9.93815 3.2806C10.0378 3.38023 10.0937 3.51535 10.0937 3.65625H14.0937ZM12.7666 0.452172C11.9168 -0.397602 10.7643 -0.875 9.5625 -0.875V3.125C9.7034 3.125 9.83852 3.18097 9.93815 3.2806L12.7666 0.452172ZM9.5625 -0.875C8.36074 -0.875 7.2082 -0.397602 6.35842 0.452172L9.18685 3.2806C9.28648 3.18097 9.4216 3.125 9.5625 3.125V-0.875ZM6.35842 0.452172C5.50865 1.30195 5.03125 2.45449 5.03125 3.65625H9.03125C9.03125 3.51535 9.08722 3.38023 9.18685 3.2806L6.35842 0.452172ZM5.03125 3.65279C5.03096 3.82234 5.04028 3.99178 5.05916 4.16028L9.03427 3.71472C9.03222 3.69646 9.03121 3.67809 9.03125 3.65971L5.03125 3.65279ZM7.04672 1.9375H4.5V5.9375H7.04672V1.9375ZM4.5 1.9375C3.6712 1.9375 2.87634 2.26674 2.29029 2.85279L5.11872 5.68122C4.95462 5.84531 4.73206 5.9375 4.5 5.9375L4.5 1.9375ZM2.29029 2.85279C1.70424 3.43884 1.375 4.2337 1.375 5.0625H5.375C5.375 5.29456 5.28281 5.51712 5.11872 5.68122L2.29029 2.85279ZM1.375 5.0625V7.32797H5.375V5.0625H1.375ZM3.59778 5.34042C3.42928 5.32153 3.25984 5.31221 3.09029 5.3125L3.09721 9.3125C3.11559 9.31246 3.13396 9.31348 3.15222 9.31552L3.59778 5.34042ZM3.09375 5.3125C1.89199 5.3125 0.739446 5.7899 -0.110328 6.63967L2.7181 9.4681C2.81773 9.36847 2.95285 9.3125 3.09375 9.3125V5.3125ZM-0.110328 6.63967C-0.960102 7.48945 -1.4375 8.64199 -1.4375 9.84375H2.5625C2.5625 9.70285 2.61847 9.56773 2.7181 9.4681L-0.110328 6.63967ZM-1.4375 9.84375C-1.4375 11.0455 -0.960102 12.1981 -0.110328 13.0478L2.7181 10.2194C2.61847 10.1198 2.5625 9.98465 2.5625 9.84375H-1.4375ZM-0.110328 13.0478C0.739446 13.8976 1.89199 14.375 3.09375 14.375V10.375C2.95285 10.375 2.81773 10.319 2.7181 10.2194L-0.110328 13.0478ZM3.09029 14.375C3.25984 14.3753 3.42928 14.366 3.59778 14.3471L3.15222 10.372C3.13396 10.374 3.11559 10.375 3.09721 10.375L3.09029 14.375ZM1.375 12.3595V14.625H5.375V12.3595H1.375ZM1.375 14.625C1.375 15.4538 1.70424 16.2487 2.29029 16.8347L5.11872 14.0063C5.28281 14.1704 5.375 14.3929 5.375 14.625H1.375ZM2.29029 16.8347C2.87634 17.4208 3.6712 17.75 4.5 17.75V13.75C4.73207 13.75 4.95463 13.8422 5.11872 14.0063L2.29029 16.8347ZM4.5 17.75H7.46859V13.75H4.5V17.75Z" fill="#3F3F3F" mask="url(#path-1-inside-1_1357_758)"/>
</g>
</svg>
