<svg width="16" height="16" viewBox="0 0 16 16" fill="none" xmlns="http://www.w3.org/2000/svg">
<path d="M8 2C4.688 2 2 4.688 2 8C2 11.312 4.688 14 8 14C11.312 14 14 11.312 14 8C14 4.688 11.312 2 8 2ZM10.418 6.92001L7.61599 9.71599C7.53199 9.80599 7.41799 9.84801 7.29799 9.84801C7.18399 9.84801 7.06999 9.80599 6.97999 9.71599L5.582 8.31802C5.408 8.14402 5.408 7.85598 5.582 7.68198C5.756 7.50798 6.044 7.50798 6.218 7.68198L7.29799 8.76201L9.782 6.28401C9.956 6.10401 10.244 6.10401 10.418 6.28401C10.592 6.45801 10.592 6.74001 10.418 6.92001Z" fill="#D83A56"/>
</svg>
