<svg width="18" height="18" viewBox="0 0 18 18" fill="none" xmlns="http://www.w3.org/2000/svg">
<g opacity="0.24">
<path d="M12.9375 12.9375H4.90781L2.94609 2.15156C2.92314 2.02239 2.85576 1.90531 2.75561 1.82057C2.65546 1.73583 2.52884 1.68876 2.39766 1.6875H1.125" stroke="#080809" stroke-width="2" stroke-linecap="round" stroke-linejoin="round"/>
<path d="M5.625 15.75C6.40165 15.75 7.03125 15.1204 7.03125 14.3438C7.03125 13.5671 6.40165 12.9375 5.625 12.9375C4.84835 12.9375 4.21875 13.5671 4.21875 14.3438C4.21875 15.1204 4.84835 15.75 5.625 15.75Z" stroke="#080809" stroke-width="2" stroke-linecap="round" stroke-linejoin="round"/>
<path d="M12.9375 15.75C13.7142 15.75 14.3438 15.1204 14.3438 14.3438C14.3438 13.5671 13.7142 12.9375 12.9375 12.9375C12.1608 12.9375 11.5312 13.5671 11.5312 14.3438C11.5312 15.1204 12.1608 15.75 12.9375 15.75Z" stroke="#080809" stroke-width="2" stroke-linecap="round" stroke-linejoin="round"/>
<path d="M4.39453 10.125H13.2258C13.4887 10.1258 13.7435 10.0339 13.9454 9.86544C14.1473 9.69698 14.2834 9.46274 14.3297 9.20391L15.1875 4.5H3.375" stroke="#080809" stroke-width="2" stroke-linecap="round" stroke-linejoin="round"/>
</g>
</svg>
