<svg width="14" height="14" viewBox="0 0 14 14" fill="none" xmlns="http://www.w3.org/2000/svg">
<path d="M6.24129 8.5384V10.3846C6.24129 10.6393 6.03452 10.8461 5.77974 10.8461C5.52497 10.8461 5.3182 10.6393 5.3182 10.3846V8.5384C5.3182 8.28362 5.52497 8.07685 5.77974 8.07685C6.03452 8.07685 6.24129 8.28362 6.24129 8.5384ZM8.24132 8.07685C7.98654 8.07685 7.77977 8.28362 7.77977 8.5384V10.3846C7.77977 10.6393 7.98654 10.8461 8.24132 10.8461C8.49609 10.8461 8.70286 10.6393 8.70286 10.3846V8.5384C8.70286 8.28362 8.49609 8.07685 8.24132 8.07685ZM12.0624 6.66021L11.6365 10.9218C11.4968 12.32 10.746 13 9.34042 13H4.68192C3.27636 13 2.52499 12.3206 2.38591 10.9218L1.96125 6.67313C1.39447 6.39928 1 5.82389 1 5.15373C1 4.22018 1.75878 3.4614 2.69233 3.4614H4.01973L5.37424 1.22259C5.50593 1.00475 5.78842 0.934587 6.00811 1.0669C6.22596 1.19859 6.29607 1.48291 6.16376 1.70076L5.09854 3.46202H8.88383L7.83461 1.69829C7.70415 1.47921 7.77614 1.19613 7.99522 1.06567C8.2143 0.934588 8.49735 1.00782 8.62782 1.22629L9.95829 3.46263H11.3072C12.2408 3.46263 12.9996 4.22141 12.9996 5.15496C12.9996 5.81405 12.6156 6.38144 12.0624 6.66021ZM1.92249 5.15373C1.92249 5.57774 2.26773 5.92297 2.69173 5.92297H11.3072C11.7312 5.92297 12.0765 5.57774 12.0765 5.15373C12.0765 4.72972 11.7312 4.38449 11.3072 4.38449H2.69173C2.26773 4.38449 1.92249 4.72972 1.92249 5.15373ZM11.1164 6.84606H2.9053L3.30344 10.8301C3.38468 11.6387 3.62777 12.0769 4.68132 12.0769H9.33982C10.3878 12.0769 10.6383 11.6197 10.7177 10.8301L11.1164 6.84606Z" fill="white"/>
</svg>
