<svg width="14" height="14" viewBox="0 0 14 14" fill="none" xmlns="http://www.w3.org/2000/svg">
<path d="M13.4615 2.15385H10.9064C10.2595 2.15385 10.2322 2.072 10.0549 1.54072L9.90984 1.10492C9.68943 0.444411 9.07416 0 8.37775 0H5.62225C4.92584 0 4.30985 0.443693 4.09015 1.10492L3.94513 1.54072C3.7678 2.07272 3.74051 2.15385 3.09364 2.15385H0.538462C0.241231 2.15385 0 2.39508 0 2.69231C0 2.98954 0.241231 3.23077 0.538462 3.23077H1.47036L2.02103 11.4865C2.12728 13.0839 3.10657 14 4.70759 14H9.29313C10.8934 14 11.8727 13.0839 11.9797 11.4865L12.5304 3.23077H13.4615C13.7588 3.23077 14 2.98954 14 2.69231C14 2.39508 13.7588 2.15385 13.4615 2.15385ZM5.11179 1.44523C5.18574 1.22482 5.39035 1.07692 5.62225 1.07692H8.37775C8.60965 1.07692 8.81498 1.22482 8.88821 1.44523L9.03323 1.88102C9.06482 1.97507 9.09641 2.06626 9.13087 2.15385H4.86769C4.90215 2.06554 4.93447 1.97436 4.96606 1.88102L5.11179 1.44523ZM10.9042 11.4147C10.836 12.4435 10.3234 12.9231 9.29241 12.9231H4.70687C3.6759 12.9231 3.164 12.4442 3.09507 11.4147L2.54944 3.23077H3.09292C3.18267 3.23077 3.25733 3.22144 3.33775 3.2157C3.36216 3.21929 3.38441 3.23077 3.40954 3.23077H10.589C10.6149 3.23077 10.6364 3.21929 10.6608 3.2157C10.7412 3.22144 10.8159 3.23077 10.9056 3.23077H11.4491L10.9042 11.4147ZM8.97436 6.28205V9.87179C8.97436 10.169 8.73313 10.4103 8.4359 10.4103C8.13867 10.4103 7.89744 10.169 7.89744 9.87179V6.28205C7.89744 5.98482 8.13867 5.74359 8.4359 5.74359C8.73313 5.74359 8.97436 5.98482 8.97436 6.28205ZM6.10256 6.28205V9.87179C6.10256 10.169 5.86133 10.4103 5.5641 10.4103C5.26687 10.4103 5.02564 10.169 5.02564 9.87179V6.28205C5.02564 5.98482 5.26687 5.74359 5.5641 5.74359C5.86133 5.74359 6.10256 5.98482 6.10256 6.28205Z" fill="#22252D"/>
</svg>
