<?xml version="1.0" encoding="UTF-8"?>
<!DOCTYPE svg PUBLIC "-//W3C//DTD SVG 1.1//EN" "http://www.w3.org/Graphics/SVG/1.1/DTD/svg11.dtd">
<!-- Creator: CorelDRAW -->
<svg xmlns="http://www.w3.org/2000/svg" xml:space="preserve" width="14.4156mm" height="15.5373mm" version="1.1" style="shape-rendering:geometricPrecision; text-rendering:geometricPrecision; image-rendering:optimizeQuality; fill-rule:evenodd; clip-rule:evenodd"
viewBox="0 0 153.99 165.97"
 xmlns:xlink="http://www.w3.org/1999/xlink"
 xmlns:xodm="http://www.corel.com/coreldraw/odm/2003">
 <defs>
  <style type="text/css">
   <![CDATA[
    .fil1 {fill:black;fill-rule:nonzero}
    .fil0 {fill:#BA1818;fill-rule:nonzero}
   ]]>
  </style>
 </defs>
 <g id="Слой_x0020_1">
  <metadata id="CorelCorpID_0Corel-Layer"/>
  <g id="_2510537657376">
   <g>
    <g>
     <path class="fil0" d="M68.75 105.62c-4.95,0 -9.01,-4.05 -9.01,-9.01l0 -47.66c0,-4.95 -4.05,-9.01 -9.01,-9.01l-2.26 0c-4.95,0 -9.01,4.05 -9.01,9.01l0 47.66c0,4.95 0,9.96 0,11.13 0,1.17 0,5.76 0,10.2 0,4.44 4.05,8.07 9.01,8.07l57.06 0c4.95,0 9.01,-4.05 9.01,-9.01l0 -2.38c0,-4.95 -4.05,-9.01 -9.01,-9.01l-36.79 0 0 0.01z"/>
    </g>
    <path class="fil1" d="M0.13 83.06c0,-23.66 -0.02,-47.32 0.03,-70.97 0.01,-1.9 0.17,-3.9 0.77,-5.67 1.37,-4.05 4.87,-6.41 9.06,-6.41 44.12,-0.01 88.24,-0.02 132.36,0.01 7.32,0.01 11.54,4.34 11.55,11.73 0.01,5.8 0.02,11.6 -0.01,17.4 -0.02,4.92 -2.6,8.8 -6.83,10.39 -4.49,1.68 -10.23,0.45 -13.24,-2.89 -1.49,-1.66 -2.22,-3.63 -2.45,-5.85 -0.49,-4.73 -3.06,-7.4 -7.73,-8.06 -1.01,-0.15 -2.04,-0.19 -3.06,-0.19 -29.11,-0.01 -58.22,-0.01 -87.33,-0.01 -2.92,0 -5.6,0.47 -7.81,2.68 -1.7,1.7 -2.6,3.68 -2.79,6.03 -0.07,0.79 -0.03,1.59 -0.03,2.39 0,32.87 0,65.74 0,98.61 0,0.8 -0.04,1.6 0.03,2.39 0.34,4.18 3.16,7.45 7.28,8.36 1.2,0.27 2.47,0.36 3.71,0.37 28.88,0.02 57.76,0.02 86.65,0.01 1.02,0 2.06,-0.01 3.06,-0.18 4.77,-0.81 7.96,-4.32 7.99,-9.16 0.09,-12.05 0.1,-24.11 -0.01,-36.17 -0.05,-5.15 -2.89,-8.24 -7.94,-9.08 -1.45,-0.24 -2.93,-0.38 -4.39,-0.38 -10.8,-0.03 -21.61,-0.21 -32.41,0.06 -6.32,0.16 -11.49,-5.03 -11.43,-11.34 0.06,-6.34 4.76,-11.22 11.24,-11.24 18.88,-0.06 37.75,-0.06 56.63,0 6.4,0.02 10.84,4.62 10.85,11.06 0.02,25.93 -0.12,51.86 0.1,77.79 0.05,6.39 -5.83,11.27 -11.13,11.25 -43.78,-0.14 -87.56,-0.15 -131.34,-0.01 -6.43,0.02 -11.59,-5.51 -11.52,-11.58 0.31,-23.78 0.13,-47.55 0.13,-71.32z"/>
   </g>
  </g>
 </g>
</svg>
