<svg width="24" height="24" viewBox="0 0 24 24" fill="none" xmlns="http://www.w3.org/2000/svg">
<path d="M10.4826 15.0768V18.7692C10.4826 19.2787 10.069 19.6922 9.55949 19.6922C9.04994 19.6922 8.6364 19.2787 8.6364 18.7692V15.0768C8.6364 14.5672 9.04994 14.1537 9.55949 14.1537C10.069 14.1537 10.4826 14.5672 10.4826 15.0768ZM14.4826 14.1537C13.9731 14.1537 13.5595 14.5672 13.5595 15.0768V18.7692C13.5595 19.2787 13.9731 19.6922 14.4826 19.6922C14.9922 19.6922 15.4057 19.2787 15.4057 18.7692V15.0768C15.4057 14.5672 14.9922 14.1537 14.4826 14.1537ZM22.1247 11.3204L21.273 19.8436C20.9936 22.64 19.492 24 16.6808 24H7.36384C4.55272 24 3.04998 22.6412 2.77183 19.8436L1.9225 11.3463C0.788949 10.7986 0 9.64779 0 8.30746C0 6.44036 1.51756 4.9228 3.38467 4.9228H6.03945L8.74848 0.44519C9.01186 0.00949107 9.57683 -0.130826 10.0162 0.133793C10.4519 0.397182 10.5921 0.965823 10.3275 1.40152L8.19709 4.92403H15.7677L13.6692 1.39658C13.4083 0.958422 13.5523 0.39226 13.9904 0.131333C14.4286 -0.130825 14.9947 0.015641 15.2556 0.45257L17.9166 4.92526H20.6145C22.4816 4.92526 23.9992 6.44282 23.9992 8.30992C23.9992 9.62809 23.2312 10.7629 22.1247 11.3204ZM1.84498 8.30746C1.84498 9.15547 2.53545 9.84594 3.38346 9.84594H20.6145C21.4625 9.84594 22.153 9.15547 22.153 8.30746C22.153 7.45945 21.4625 6.76898 20.6145 6.76898H3.38346C2.53545 6.76898 1.84498 7.45945 1.84498 8.30746ZM20.2329 11.6921H3.8106L4.60689 19.6602C4.76935 21.2775 5.25553 22.1538 7.36264 22.1538H16.6796C18.7757 22.1538 19.2766 21.2393 19.4354 19.6602L20.2329 11.6921Z" fill="#22252D"/>
</svg>
