<svg width="24" height="24" viewBox="0 0 24 24" fill="none" xmlns="http://www.w3.org/2000/svg">
<path fill-rule="evenodd" clip-rule="evenodd" d="M24 8.64036C24 10.0534 22.8053 11.2003 21.3333 11.2003H2.66667C1.19467 11.2003 0 10.0534 0 8.64036C0 7.22727 1.19467 6.08042 2.66667 6.08042H4.9707L8.5026 0.463905C8.78794 0.0107955 9.40267 -0.136398 9.87467 0.138795C10.3467 0.413989 10.5 1.00277 10.2134 1.45716L7.30534 6.08042H16.7067L13.832 1.45205C13.5494 0.997657 13.704 0.407591 14.18 0.136237C14.6533 -0.133837 15.268 0.0133617 15.5506 0.470311L19.036 6.0817H21.3333C22.8053 6.08042 24 7.22727 24 8.64036ZM21.8346 12.9027L21.0267 20.5441C20.84 22.5024 19.9867 24 17.0534 24H6.97331C3.98664 24 3.19999 22.5024 2.98665 20.5441L2.16536 12.9039C2.14136 12.6774 2.32533 12.4803 2.56266 12.4803H21.436C21.6747 12.4803 21.8586 12.6774 21.8346 12.9027ZM10.36 15.6802C10.36 15.1554 9.90669 14.7202 9.36003 14.7202C8.80003 14.7202 8.36003 15.1554 8.36003 15.6802V19.5201C8.36003 20.0449 8.80003 20.4801 9.36003 20.4801C9.90669 20.4801 10.36 20.0449 10.36 19.5201V15.6802ZM15.6934 15.6802C15.6934 15.1554 15.24 14.7202 14.6934 14.7202C14.1334 14.7202 13.6934 15.1554 13.6934 15.6802V19.5201C13.6934 20.0449 14.1334 20.4801 14.6934 20.4801C15.24 20.4801 15.6934 20.0449 15.6934 19.5201V15.6802Z" fill="#22252D"/>
</svg>
