<svg width="14" height="14" viewBox="0 0 14 14" fill="none" xmlns="http://www.w3.org/2000/svg">
<path d="M7 0C3.136 0 0 3.136 0 7C0 10.864 3.136 14 7 14C10.864 14 14 10.864 14 7C14 3.136 10.864 0 7 0ZM9.471 8.72898C9.674 8.93198 9.674 9.26802 9.471 9.47102C9.366 9.57602 9.233 9.625 9.1 9.625C8.967 9.625 8.834 9.57602 8.729 9.47102L7 7.742L5.271 9.47102C5.166 9.57602 5.033 9.625 4.9 9.625C4.767 9.625 4.634 9.57602 4.529 9.47102C4.326 9.26802 4.326 8.93198 4.529 8.72898L6.258 7L4.529 5.27102C4.326 5.06802 4.326 4.73198 4.529 4.52898C4.732 4.32598 5.068 4.32598 5.271 4.52898L7 6.258L8.729 4.52898C8.932 4.32598 9.268 4.32598 9.471 4.52898C9.674 4.73198 9.674 5.06802 9.471 5.27102L7.742 7L9.471 8.72898Z" fill="#22252D"/>
</svg>
